# xmcd
#
# Track frame offsets: 
#        150
#        22301
#        36362
#        60844
#        79285
#        94001
#        113492
#        131309
#        155968
#        182997
#        205922
#        241526
#        266888
#        292030
#        310177
#        326669
#
# Disc length: 4738 seconds
#
# Revision: 0
# Processed by: cddbd v1.5.2PL0 Copyright (c) Steve Scherf et al.
# Submitted via: ExactAudioCopyFreeDBPlugin 1.0
#
DISCID=e4128010
DTITLE=ゆず - 二人参客 2015.8.16～黄色の日～
DYEAR=2015
DGENRE=JPop
TTITLE0=センチメンタル
TTITLE1=ところで
TTITLE2=心の音
TTITLE3=ねこじゃらし
TTITLE4=流れ者
TTITLE5=もうすぐ30才
TTITLE6=連呼
TTITLE7=ジャニス
TTITLE8=友達の唄
TTITLE9=シシカバブー
TTITLE10=虹
TTITLE11=夏色
TTITLE12=二人三脚
TTITLE13=終わらない歌
TTITLE14=少年
TTITLE15=栄光の架橋
EXTD=
EXTT0=
EXTT1=
EXTT2=
EXTT3=
EXTT4=
EXTT5=
EXTT6=
EXTT7=
EXTT8=
EXTT9=
EXTT10=
EXTT11=
EXTT12=
EXTT13=
EXTT14=
EXTT15=
PLAYORDER=
